<svg width="32" height="33" viewBox="0 0 32 33" fill="none" xmlns="http://www.w3.org/2000/svg">
<path d="M8.65597 3.6665C8.13297 3.6665 7.61697 3.8545 7.18697 4.1975L7.12497 4.2285L7.09397 4.2605L3.96897 7.4795L3.99997 7.5095C3.54145 7.92586 3.21657 8.46874 3.06635 9.0696C2.91614 9.67046 2.94732 10.3024 3.15597 10.8855C3.15997 10.8935 3.15197 10.9085 3.15597 10.9165C4.00397 13.3425 6.17197 18.0265 10.406 22.2605C14.656 26.5105 19.402 28.5925 21.75 29.5105H21.781C22.3694 29.705 22.9982 29.7439 23.6061 29.6233C24.214 29.5027 24.7803 29.2269 25.25 28.8225L28.406 25.6665C29.234 24.8385 29.234 23.4005 28.406 22.5725L24.344 18.5105L24.312 18.4475C23.484 17.6195 22.016 17.6195 21.187 18.4475L19.187 20.4475C17.686 19.7264 16.3054 18.7779 15.094 17.6355C13.457 16.0725 12.621 14.2755 12.313 13.5725L14.313 11.5725C15.153 10.7325 15.168 9.3345 14.281 8.5105L14.312 8.4785L14.219 8.3855L10.219 4.2605L10.188 4.2295L10.125 4.1975C9.70994 3.85861 9.19178 3.67131 8.65597 3.6665ZM8.65597 5.6665C8.73772 5.67125 8.81522 5.70452 8.87497 5.7605L12.875 9.8535L12.969 9.9475C12.961 9.9395 13.027 10.0455 12.906 10.1665L10.406 12.6665L9.93698 13.1045L10.157 13.7285C10.157 13.7285 11.305 16.8035 13.719 19.1045L13.938 19.2915C16.261 21.4125 19 22.5725 19 22.5725L19.625 22.8545L22.594 19.8845C22.766 19.7135 22.734 19.7135 22.906 19.8845L27 23.9805C27.172 24.1515 27.172 24.0895 27 24.2605L23.937 27.3235C23.477 27.7185 22.988 27.8005 22.407 27.6055C20.141 26.7145 15.738 24.7805 11.812 20.8555C7.85498 16.8975 5.78897 12.4095 5.03197 10.2305C4.87897 9.8235 4.98797 9.2225 5.34397 8.9175L5.40597 8.8545L8.43797 5.7615C8.49707 5.70558 8.5738 5.67199 8.65497 5.6665H8.65597Z" fill="#684FFF"/>
</svg>
